<svg xmlns="http://www.w3.org/2000/svg" style="isolation:isolate" viewBox="0 0 24 24" width="32" height="32"><path d="M11 1.045A11.004 11.004 0 0 0 4.22 4.22a11.005 11.005 0 0 0 0 15.56 11.005 11.005 0 0 0 15.56 0 11.005 11.005 0 0 0 0-15.56A11.004 11.004 0 0 0 13 1.045V1c0-.27-.11-.52-.29-.71C12.52.11 12.27 0 12 0c-.27 0-.52.11-.71.29-.18.19-.29.44-.29.71v.045Zm0 2.011A8.959 8.959 0 0 0 5.64 5.64 8.967 8.967 0 0 0 3 12c0 2.39.95 4.68 2.64 6.36A8.967 8.967 0 0 0 12 21c2.39 0 4.68-.95 6.36-2.64A8.967 8.967 0 0 0 21 12c0-2.39-.95-4.68-2.64-6.36A8.959 8.959 0 0 0 13 3.056V5c0 .27-.11.52-.29.71-.19.18-.44.29-.71.29-.27 0-.52-.11-.71-.29-.18-.19-.29-.44-.29-.71V3.056Z" fill-rule="evenodd" fill="#e66767"/></svg>