<?xml version="1.0" encoding="UTF-8" standalone="no"?><svg xmlns="http://www.w3.org/2000/svg" xmlns:xlink="http://www.w3.org/1999/xlink" style="isolation:isolate" viewBox="0 0 24 24" width="24pt" height="24pt"><path d=" M 11 1.045 C 8.447 1.278 6.044 2.396 4.22 4.22 C 2.16 6.28 1 9.08 1 12 L 1 12 C 1 14.92 2.16 17.72 4.22 19.78 C 6.28 21.84 9.08 23 12 23 C 14.92 23 17.72 21.84 19.78 19.78 C 21.84 17.72 23 14.92 23 12 C 23 9.08 21.84 6.28 19.78 4.22 C 17.956 2.396 15.553 1.278 13 1.045 L 13 1 C 13 0.73 12.89 0.48 12.71 0.29 C 12.52 0.11 12.27 0 12 0 C 11.73 0 11.48 0.11 11.29 0.29 C 11.11 0.48 11 0.73 11 1 L 11 1.045 Z  M 11 3.056 C 8.979 3.282 7.084 4.187 5.64 5.64 C 3.95 7.32 3 9.61 3 12 L 3 12 C 3 14.39 3.95 16.68 5.64 18.36 C 7.32 20.05 9.61 21 12 21 C 14.39 21 16.68 20.05 18.36 18.36 C 20.05 16.68 21 14.39 21 12 C 21 9.61 20.05 7.32 18.36 5.64 C 16.916 4.187 15.021 3.282 13 3.056 L 13 5 C 13 5.27 12.89 5.52 12.71 5.71 C 12.52 5.89 12.27 6 12 6 C 11.73 6 11.48 5.89 11.29 5.71 C 11.11 5.52 11 5.27 11 5 L 11 3.056 Z " fill-rule="evenodd" fill="#e66767"/></svg>